<svg clip-rule="evenodd" fill-rule="evenodd" stroke-linejoin="round" stroke-miterlimit="2" viewBox="0 0 560 400" xmlns="http://www.w3.org/2000/svg"><g fill-rule="nonzero" transform="matrix(.641912 0 0 .641912 100 142.771)"><path d="m99.794 177.785v-28.998h6.359v28.998zm38.873 0-14.039-18.428v18.437h-6.277v-29.007h5.864l13.544 17.858v-17.858h6.278v28.998zm28.243-23.116v23.116h-6.36v-23.116h-8.797v-5.882h23.954v5.882zm16.494 23.116v-28.998h21.81v5.671h-15.523v5.772h13.626v5.671h-13.626v6.204h15.697v5.671zm50.09 0-6.232-9.274h-4.994v9.283h-6.36v-29.007h13.187c6.818 0 10.905 3.603 10.905 9.568v.082c.19 4.054-2.347 7.735-6.195 8.989l7.065 10.359zm.128-19.099c0-2.758-1.897-4.146-4.994-4.146h-6.323v8.328h6.414c3.098 0 4.876-1.655 4.876-4.1zm37.187 19.099-14.003-18.438v18.438h-6.277v-28.998h5.865l13.544 17.858v-17.858h6.277v28.998zm37.113 0-2.639-6.507h-12.252l-2.639 6.507h-6.488l12.389-29.21h5.865l12.39 29.21zm-8.779-21.535-3.839 9.403h7.679zm32.074-1.572v23.116h-6.36v-23.125h-8.797v-5.882h23.954v5.882zm17.173 23.116v-29.007h6.359v28.998zm31.651.496c-8.907.019-15.322-6.672-15.322-14.917v-.083c0-8.272 6.488-15 15.405-15 8.916 0 15.322 6.673 15.322 14.918v.082c.009 8.245-6.47 15.019-15.396 15.019zm8.752-15c.167-4.865-3.63-8.945-8.481-9.112-.09-.003-.18-.005-.271-.005-5.122 0-8.678 4.062-8.678 9.035v.082c-.167 4.865 3.63 8.945 8.481 9.113.09.003.18.005.271.005 5.122 0 8.678-4.063 8.678-9.035zm37.324 14.495-14.002-18.438v18.438h-6.25v-28.998h5.865l13.544 17.858v-17.858h6.277v28.998zm37.113 0-2.639-6.507h-12.197l-2.639 6.507h-6.488l12.389-29.21h5.865l12.39 29.21zm-8.705-21.535-3.84 9.403h7.679zm22.57 21.544v-29.007h6.36v23.198h14.415v5.8z"/><path d="m299.418 56.176c-3.377-1.774-7.112-2.755-10.923-2.867-7.606 0-11.913 5.515-13.04 7.353v59.117h-23.066v-82.858h21.132l1.32 8.677c.916-1.508 6.414-10.46 17.319-10.46 2.471.032 4.92.457 7.258 1.259zm54.736-19.779c-2.338-.802-4.788-1.227-7.258-1.259-10.914 0-16.376 8.952-17.32 10.459l-1.319-8.676h-21.132v82.867h23.065v-59.126c1.164-1.884 5.425-7.353 13.04-7.353 3.811.112 7.546 1.093 10.924 2.867zm-115.895 24.311v59.081h-21.168l-1.32-8.64c-1.457 1.415-8.247 10.423-22.241 10.423-13.195 0-22.304-10.111-22.304-23.723 0-29.32 34.474-33.446 43.986-34.412v-2.352c0-4.798-4.014-9.78-14.662-9.78-11.253 0-19.922 6.241-21.48 7.353v-17.086c8.991-4.323 18.85-6.524 28.82-6.434 21.205-.018 30.369 9.697 30.369 25.57zm-23.065 18.924c-7.331 0-20.72 2.528-20.72 14.127 0 5.883 4.014 10.11 9.045 10.11 6.543 0 11.675-4.705 11.675-15.303zm-126.58-67.279 20.738 44.632-8.138 17.464-34.593-74.449-26.355 12.325 20.719 44.568c-1.622 3.475-4.224 9.127-8.44 18.125-9.475 20.322-16.806 26.011-29.791 26.011-3.571-.064-7.107-.719-10.465-1.939l-12.289 26.415c6.225 2.6 12.886 3.988 19.629 4.091 15.368 0 26.657-10.019 36.472-31.14l12.096-26.011 21.993 47.371h32.074l-13.893-29.871 8.138-17.463 21.993 47.371h32.073l-55.606-119.853zm460.509 24.577v-27.417l-23.066 10.79v16.627h-7.386v14.412h7.395v68.456h23.066v-68.465h11.693v-14.412zm-186.337 82.868h23.065v-82.877h-23.065zm137.356-110.294-23.065 10.79v16.627h-7.395v14.412h7.395v68.456h23.065v-68.456h11.702v-14.412h-11.702zm-35.849 62.031v13.63c0 19.752-9.622 36.416-33.255 36.416-23.634 0-33.256-16.544-33.256-36.416v-13.621c0-19.834 9.622-36.415 33.256-36.415 23.633 0 33.255 16.663 33.255 36.415zm-23.248-3.281c0-9.908-2.401-16.94-10.007-16.94s-10.007 7.032-10.007 16.94v20.22c0 9.908 2.355 16.94 10.007 16.94s10.007-7.032 10.007-16.94z"/></g></svg>